<?xml version="1.0" encoding="utf-8"?>
<!-- Generator: Adobe Illustrator 19.0.0, SVG Export Plug-In . SVG Version: 6.00 Build 0)  -->
<svg version="1.1" id="Layer_1" xmlns="http://www.w3.org/2000/svg" xmlns:xlink="http://www.w3.org/1999/xlink" x="0px" y="0px"
	 viewBox="0 0 512 512" style="enable-background:new 0 0 512 512;" xml:space="preserve">
<style type="text/css">
	.st0{fill:none;stroke:#ffffff;stroke-width:20;stroke-miterlimit:10;}
</style>
<path id="XMLID_15_" class="st0" d="M168,209v64 M313.4,216.5c-1.3-8-5-15.6-10.6-21.4c-5.6-5.8-13-9.9-20.9-11.5
	c-8.2-1.7-16.9-0.7-24.5,2.8c-7.3,3.3-13.5,8.9-17.7,15.7c-4.3,7.1-6.3,15.6-5.7,23.9c0.6,8.2,3.8,16,9,22.3
	c5.1,6.2,12.1,10.8,19.9,13c8.1,2.3,16.8,2,24.7-0.9c7.6-2.8,14.2-7.9,18.9-14.5c4.8-6.7,7.4-14.9,7.4-23.1
	C313.8,220.7,313.7,218.6,313.4,216.5z M211.3,200.3c-1.7-8.6-8.6-15.6-17.1-17.4c-8.9-1.9-18.4,2.2-23.2,10
	c-5,8.1-4.1,18.9,2.1,26.1c6,6.9,16.2,9.4,24.7,6c8.2-3.3,13.9-11.6,13.9-20.5C211.7,203.1,211.6,201.7,211.3,200.3z M338,203v45
	 M371.3,196.9c-1.1-6.9-6.5-12.5-13.3-13.9c-6.9-1.4-14.1,1.8-17.7,7.8c-3.7,6-3.1,14,1.4,19.4c4.5,5.4,12.1,7.5,18.8,5.1
	c6.6-2.4,11-8.8,11-15.8C371.5,198.6,371.5,197.7,371.3,196.9z M385.4,245.8c-1.5-9.8-9.2-17.8-18.9-19.8c-9.9-2-20.1,2.5-25.3,11.1
	c-5.2,8.6-4.4,19.9,2,27.7c6.4,7.8,17.3,10.7,26.8,7.3c9.4-3.4,15.7-12.6,15.7-22.6C385.7,248.3,385.6,247,385.4,245.8z
	 M485.4,216.5c-1.3-8-5-15.6-10.6-21.4c-5.6-5.8-13-9.9-20.9-11.5c-8.2-1.7-16.9-0.7-24.5,2.8c-7.3,3.3-13.5,8.9-17.7,15.7
	c-4.3,7.1-6.3,15.6-5.7,23.9c0.6,8.2,3.8,16,9,22.3c5.1,6.2,12.1,10.8,19.9,13c8.1,2.3,16.8,2,24.7-0.9c7.6-2.8,14.2-7.9,18.9-14.5
	c4.8-6.7,7.4-14.9,7.4-23.1C485.8,220.7,485.7,218.6,485.4,216.5z M108.1,166.9l-79,0 M113.5,238c14-2.7,25.5-14.1,28.4-28
	c3-14.6-3.7-30.2-16.3-38c-13.2-8.2-31-6.7-42.7,3.5c-11.3,9.9-15.4,26.5-9.8,40.5c5.4,13.5,19,22.8,33.5,22.8
	C108.9,238.7,111.2,238.4,113.5,238z M106.1,292.5l-33.9-79 M107.1,292.5l34-79 M106.7,293.1c0.2,0,0.4-0.2,0.4-0.4
	c0-0.2-0.1-0.4-0.2-0.5c-0.2-0.1-0.4-0.1-0.6,0c-0.2,0.1-0.2,0.4-0.1,0.6C106.2,293,106.4,293.2,106.7,293.1
	C106.7,293.2,106.7,293.2,106.7,293.1z M99,245v23 M116,245v23"/>
</svg>
