<?xml version="1.0" encoding="iso-8859-1"?>
<!-- Generator: Adobe Illustrator 19.0.0, SVG Export Plug-In . SVG Version: 6.00 Build 0)  -->
<svg xmlns="http://www.w3.org/2000/svg" xmlns:xlink="http://www.w3.org/1999/xlink" version="1.1" id="Capa_1" x="0px" y="0px" viewBox="0 0 512 512" style="enable-background:new 0 0 512 512;" xml:space="preserve" width="512px" height="512px">
<g>
	<g>
		<path d="M256,58.049c-16.567,0-30,13.433-30,30c0,16.567,13.433,30,30,30c58.046,0,105,46.981,105,105c0,138.31-210,137.18-210,0    c0-16.567-13.433-30-30-30s-30,13.433-30,30c0,91.24,73.819,165,165,165c91.24,0,165-73.819,165-165    C421,131.809,347.181,58.049,256,58.049z" fill="#242324"/>
	</g>
</g>
<g>
	<g>
		<path d="M309.056,170.037c-11.719-11.719-30.703-11.719-42.422,0s-11.719,30.703,0,42.422c5.863,5.892,5.921,15.231-0.044,21.226    c-5.976,5.946-15.19,5.961-21.225-0.045c-11.719-11.719-30.703-11.719-42.422,0s-11.719,30.703,0,42.422    c29.403,29.403,76.786,29.327,106.069,0.044C338.415,246.703,338.339,199.32,309.056,170.037z" fill="#242324"/>
	</g>
</g>
<g>
	<g>
		<path d="M436.308,42.741c-11.719-11.718-30.704-11.718-42.422,0.001c-11.719,11.719-11.719,30.703,0,42.422    C430.712,122.004,451,170.959,451,223.049c0,107.755-87.207,195-195,195c-107.755,0-195-87.207-195-195    c0-52.09,20.288-101.045,57.114-137.886c11.719-11.719,11.719-30.703,0-42.422s-30.703-11.719-42.422,0    C27.528,90.906,0,154.934,0,223.049c0,140.914,115.045,255,256,255c140.914,0,256-114.045,256-255    C512,154.934,484.472,90.905,436.308,42.741z" fill="#242324"/>
	</g>
</g>
<g>
</g>
<g>
</g>
<g>
</g>
<g>
</g>
<g>
</g>
<g>
</g>
<g>
</g>
<g>
</g>
<g>
</g>
<g>
</g>
<g>
</g>
<g>
</g>
<g>
</g>
<g>
</g>
<g>
</g>
</svg>
