<svg style="position: absolute; width: 0; height: 0;" width="0" height="0" version="1.1" xmlns="http://www.w3.org/2000/svg" xmlns:xlink="http://www.w3.org/1999/xlink">
<defs>
<symbol id="icon-play2" viewBox="0 0 1024 1024">
<title>play2</title>
<path class="path1" d="M464.576 447.168v129.664h14.016l80.896-67.584-80.896-62.080h-14.016zM478.016 556.608v-89.28l58.368 42.88-58.368 46.4z"></path>
<path class="path2" d="M899.712 798.784c-88.064 118.72-228.864 196.16-387.712 196.16-266.368 0-483.008-216.64-483.008-483.008 0-266.304 216.704-483.008 483.008-483.008 152.768 0 288.896 71.488 377.472 182.464 8.896-4.096 18.24-7.744 27.904-11.008-93.696-121.536-240.384-200.384-405.376-200.384-282.304 0-512 229.696-512 512s229.696 512 512 512c171.52 0 323.264-85.12 416.192-214.976-9.856-3.008-19.264-6.4-28.48-10.24z"></path>
</symbol>
<symbol id="icon-play" viewBox="0 0 1024 1024">
<title>play</title>
<path class="path1" d="M512 0c-282.304 0-512 229.696-512 512s229.696 512 512 512c282.24 0 512-229.696 512-512s-229.76-512-512-512zM512 994.944c-266.368 0-483.008-216.64-483.008-483.008 0-266.304 216.704-483.008 483.008-483.008 266.368 0 483.008 216.704 483.008 483.008 0 266.432-216.64 483.008-483.008 483.008zM464.576 447.168v129.664h14.016l80.896-67.584-80.896-62.080h-14.016zM478.016 556.608v-89.28l58.368 42.88-58.368 46.4z"></path>
</symbol>
<symbol id="icon-view-cases" viewBox="0 0 1024 1024">
<title>view-cases</title>
<path class="path1" d="M512.032 0c-282.77 0-512.032 229.262-512.032 512.032 0 282.706 229.262 512.032 512.032 512.032s512.032-229.262 512.032-512.032c0-282.77-229.262-512.032-512.032-512.032zM545.634 530.529l-0.704 0.704-79.045 72.965-19.201-18.497 78.853-72.773-78.853-74.629 19.137-18.433 79.301 75.077 0.576-0.576 19.073 18.433-19.137 17.729z"></path>
</symbol>
<symbol id="icon-pin" viewBox="0 0 1024 1024">
<title>pin</title>
<path class="path1" d="M926.592 426.304c0-228.992-185.6-414.592-414.592-414.592s-414.592 185.6-414.592 414.592c0 115.136 46.976 219.2 122.688 294.336l-0.192 0.192 235.136 235.072-0.32 0.32 56.064 56.064 0.32-0.32 0.32 0.32 57.408-57.408-0.32-0.32 219.648-219.648c84.8-75.904 138.432-185.856 138.432-308.608zM511.936 249.088c101.12 0 183.168 81.984 183.168 183.168s-81.984 183.104-183.168 183.104c-101.184 0-183.168-81.984-183.168-183.168s82.048-183.104 183.168-183.104z"></path>
</symbol>
<symbol id="icon-facebook" viewBox="0 0 585 1024">
<title>facebook</title>
<path class="path1" d="M548 6.857v150.857h-89.714q-49.143 0-66.286 20.571t-17.143 61.714v108h167.429l-22.286 169.143h-145.143v433.714h-174.857v-433.714h-145.714v-169.143h145.714v-124.571q0-106.286 59.429-164.857t158.286-58.571q84 0 130.286 6.857z"></path>
</symbol>
<symbol id="icon-google-plus" viewBox="0 0 951 1024">
<title>google-plus</title>
<path class="path1" d="M420 454.857q0 20.571 18.286 40.286t44.286 38.857 51.714 42 44 59.429 18.286 81.143q0 51.429-27.429 98.857-41.143 69.714-120.571 102.571t-170.286 32.857q-75.429 0-140.857-23.714t-98-78.571q-21.143-34.286-21.143-74.857 0-46.286 25.429-85.714t67.714-65.714q74.857-46.857 230.857-57.143-18.286-24-27.143-42.286t-8.857-41.714q0-20.571 12-48.571-26.286 2.286-38.857 2.286-84.571 0-142.571-55.143t-58-139.714q0-46.857 20.571-90.857t56.571-74.857q44-37.714 104.286-56t124.286-18.286h238.857l-78.857 50.286h-74.857q42.286 36 64 76t21.714 91.429q0 41.143-14 74t-33.714 53.143-39.714 37.143-34 35.143-14 37.714zM336.571 400q21.714 0 44.571-9.429t37.714-24.857q30.286-32.571 30.286-90.857 0-33.143-9.714-71.429t-27.714-74-48.286-59.143-66.857-23.429q-24 0-47.143 11.143t-37.429 30q-26.857 33.714-26.857 91.429 0 26.286 5.714 55.714t18 58.857 29.714 52.857 42.857 38.286 55.143 14.857zM337.714 898.857q33.143 0 63.714-7.429t56.571-22.286 41.714-41.714 15.714-62.286q0-14.286-4-28t-8.286-24-15.429-23.714-16.857-20-22-19.714-20.857-16.571-23.714-17.143-20.857-14.857q-9.143-1.143-27.429-1.143-30.286 0-60 4t-61.429 14.286-55.429 26.286-39.143 42.571-15.429 60.286q0 40 20 70.571t52.286 47.429 68 25.143 72.857 8.286zM800.571 398.286h121.714v61.714h-121.714v125.143h-60v-125.143h-121.143v-61.714h121.143v-124h60v124z"></path>
</symbol>
<symbol id="icon-linkedin" viewBox="0 0 877.7142857142858 1024">
<title>linkedin</title>
<path class="path1" d="M199.429 357.143v566.286h-188.571v-566.286h188.571zM211.429 182.286q0.571 41.714-28.857 69.714t-77.429 28h-1.143q-46.857 0-75.429-28t-28.571-69.714q0-42.286 29.429-70t76.857-27.714 76 27.714 29.143 70zM877.714 598.857v324.571h-188v-302.857q0-60-23.143-94t-72.286-34q-36 0-60.286 19.714t-36.286 48.857q-6.286 17.143-6.286 46.286v316h-188q1.143-228 1.143-369.714t-0.571-169.143l-0.571-27.429h188v82.286h-1.143q11.429-18.286 23.429-32t32.286-29.714 49.714-24.857 65.429-8.857q97.714 0 157.143 64.857t59.429 190z"></path>
</symbol>
<symbol id="icon-tumblr" viewBox="0 0 585 1024">
<title>tumblr</title>
<path class="path1" d="M539.429 759.429l45.714 135.429q-13.143 20-63.429 37.714t-101.143 18.286q-59.429 1.143-108.857-14.857t-81.429-42.286-54.286-60.571-31.714-68.571-9.429-67.429v-310.857h-96v-122.857q41.143-14.857 73.714-39.714t52-51.429 33.143-58.286 19.429-56.571 8.571-50.571q0.571-2.857 2.571-4.857t4.286-2h139.429v242.286h190.286v144h-190.857v296q0 17.143 3.714 32t12.857 30 28.286 23.714 46.571 8q44.571-1.143 76.571-16.571z"></path>
</symbol>
<symbol id="icon-dribbble" viewBox="0 0 877.7142857142858 1024">
<title>dribbble</title>
<path class="path1" d="M585.143 857.143q-24-137.714-80-284.571h-1.143l-1.143 0.571q-9.143 3.429-24.571 9.429t-57.714 28-78.286 46.857-74.857 65.429-58.857 84.571l-8.571-6.286q105.143 85.714 238.857 85.714 75.429 0 146.286-29.714zM479.429 510.286q-12-28-30.286-63.429-177.714 53.143-384.571 53.143-0.571 4-0.571 12 0 70.857 25.143 135.143t70.857 115.143q28.571-50.857 70.571-95.143t81.429-71.143 74.571-46.286 56.857-27.429l21.143-7.429q2.286-0.571 7.429-2t7.429-2.571zM418.286 389.143q-68.571-121.714-139.429-216-78.857 37.143-133.714 106.286t-73.143 155.429q172.571 0 346.286-45.714zM809.143 571.429q-120-34.286-233.714-16.571 49.714 136.571 73.143 268 63.429-42.857 105.714-108.286t54.857-143.143zM349.143 148q-0.571 0-1.143 0.571 0.571-0.571 1.143-0.571zM686.286 230.857q-105.714-93.714-247.429-93.714-43.429 0-88.571 10.857 74.857 97.143 140.571 218.286 39.429-14.857 74.286-34.571t55.143-35.143 37.429-32.571 21.429-23.143zM813.714 508q-1.714-132.571-85.143-234.286l-0.571 0.571q-5.143 6.857-10.857 14t-24.857 25.429-40.571 34.571-57.143 37.143-75.143 36.857q14.286 30.286 25.143 54.286 1.143 3.429 3.714 10t4.286 9.429q20.571-2.857 42.571-4t42-1.143 39.429 0.857 36.571 2.286 32.286 3.143 27.429 3.714 20.857 3.429 14.286 2.571zM877.714 512q0 119.429-58.857 220.286t-159.714 159.714-220.286 58.857-220.286-58.857-159.714-159.714-58.857-220.286 58.857-220.286 159.714-159.714 220.286-58.857 220.286 58.857 159.714 159.714 58.857 220.286z"></path>
</symbol>
<symbol id="icon-behance" viewBox="0 0 1170 1024">
<title>behance</title>
<path class="path1" d="M1056 193.714h-292v70.857h292v-70.857zM912 437.143q-51.429 0-83.429 30t-35.429 81.429h233.143q-10.286-111.429-114.286-111.429zM921.143 771.429q36 0 69.714-18.286t43.429-49.714h126.286q-57.143 175.429-244 175.429-122.286 0-194.571-75.429t-72.286-198.286q0-118.857 74.571-197.429t192.286-78.571q78.857 0 137.429 38.857t87.429 102.286 28.857 141.714q0 9.714-1.143 26.857h-376q0 63.429 32.857 98t95.143 34.571zM158.286 742.857h169.143q117.143 0 117.143-95.429 0-102.857-113.714-102.857h-172.571v198.286zM158.286 436h160.571q44.571 0 70.571-20.857t26-64.857q0-82.286-108.571-82.286h-148.571v168zM0 145.143h339.429q49.714 0 88.571 8t72.286 27.143 51.429 55.143 18 88q0 103.429-98.286 150.286 65.143 18.286 98.286 65.714t33.143 116.571q0 42.857-14 78t-37.714 59.143-56.286 40.571-69.143 24-76.571 7.429h-349.143v-720z"></path>
</symbol>
<symbol id="icon-pinterest-p" viewBox="0 0 731 1024">
<title>pinterest-p</title>
<path class="path1" d="M0 341.143q0-61.714 21.429-116.286t59.143-95.143 86.857-70.286 105.714-44.571 115.429-14.857q90.286 0 168 38t126.286 110.571 48.571 164q0 54.857-10.857 107.429t-34.286 101.143-57.143 85.429-82.857 58.857-108 22q-38.857 0-77.143-18.286t-54.857-50.286q-5.714 22.286-16 64.286t-13.429 54.286-11.714 40.571-14.857 40.571-18.286 35.714-26.286 44.286-35.429 49.429l-8 2.857-5.143-5.714q-8.571-89.714-8.571-107.429 0-52.571 12.286-118t38-164.286 29.714-116q-18.286-37.143-18.286-96.571 0-47.429 29.714-89.143t75.429-41.714q34.857 0 54.286 23.143t19.429 58.571q0 37.714-25.143 109.143t-25.143 106.857q0 36 25.714 59.714t62.286 23.714q31.429 0 58.286-14.286t44.857-38.857 32-54.286 21.714-63.143 11.429-63.429 3.714-56.857q0-98.857-62.571-154t-163.143-55.143q-114.286 0-190.857 74t-76.571 187.714q0 25.143 7.143 48.571t15.429 37.143 15.429 26 7.143 17.429q0 16-8.571 41.714t-21.143 25.714q-1.143 0-9.714-1.714-29.143-8.571-51.714-32t-34.857-54-18.571-61.714-6.286-60.857z"></path>
</symbol>
<symbol id="icon-twitter" viewBox="0 0 951 1024">
<title>twitter</title>
<path class="path1" d="M925.714 233.143q-38.286 56-92.571 95.429 0.571 8 0.571 24 0 74.286-21.714 148.286t-66 142-105.429 120.286-147.429 83.429-184.571 31.143q-154.857 0-283.429-82.857 20 2.286 44.571 2.286 128.571 0 229.143-78.857-60-1.143-107.429-36.857t-65.143-91.143q18.857 2.857 34.857 2.857 24.571 0 48.571-6.286-64-13.143-106-63.714t-42-117.429v-2.286q38.857 21.714 83.429 23.429-37.714-25.143-60-65.714t-22.286-88q0-50.286 25.143-93.143 69.143 85.143 168.286 136.286t212.286 56.857q-4.571-21.714-4.571-42.286 0-76.571 54-130.571t130.571-54q80 0 134.857 58.286 62.286-12 117.143-44.571-21.143 65.714-81.143 101.714 53.143-5.714 106.286-28.571z"></path>
</symbol>
</defs>
</svg>
